# xmcd
#
# Track frame offsets:
#	150
#	12592
#	26199
#	37408
#	49732
#	62569
#	73875
#	85238
#	96755
#	108094
#	123024
#	138565
#	153138
#	163121
#	173843
#	185302
#
# Disc length: 2655 seconds
#
# Revision: 1
# Processed by: cddbd v1.5.2PL0 Copyright (c) Steve Scherf et al.
# Submitted via: audiograbber 1.83.01
#
DISCID=d80a5d10
DTITLE=bo diddley - selected singles 55 - 5t7
DYEAR=1900
DGENRE=
TTITLE0=bo diddley
TTITLE1=i'm a man
TTITLE2=diddley daddy
TTITLE3=she's fine, she's mine
TTITLE4=pretty thing
TTITLE5=bring it to jerome
TTITLE6=diddy wah diddy
TTITLE7=i'looking for a woman
TTITLE8=woh do you love?
TTITLE9=i'm bad
TTITLE10=cops and robbers
TTITLE11=down home special
TTITLE12=hey! bo diddley
TTITLE13=mona
TTITLE14=say boss man
TTITLE15=before you accuse me (take a look at yourself)
EXTD=
EXTT0=
EXTT1=
EXTT2=
EXTT3=
EXTT4=
EXTT5=
EXTT6=
EXTT7=
EXTT8=
EXTT9=
EXTT10=
EXTT11=
EXTT12=
EXTT13=
EXTT14=
EXTT15=
PLAYORDER=
